<svg id="Group_31288" data-name="Group 31288" xmlns="http://www.w3.org/2000/svg" width="28.711" height="38.092" viewBox="0 0 28.711 38.092">
  <g id="Group_31133" data-name="Group 31133" transform="translate(0 0)">
    <path id="Path_10" data-name="Path 10" d="M1406.7,312.565c-.729-.086-12.181,0-12.181,0l-.256-1.391a.8.8,0,0,0-.739-.656c-.656-.058-2.668.007-2.668.007s-.513-.01-.687.68a.85.85,0,0,0,.646.944c1,.008,2.094.011,2.094.011l1.95,10.394a.951.951,0,0,0,.554.8l2.709,1.582,1.365-1.057-3.181-1.869-.144-.8,9.369-1.154a.741.741,0,0,0,.646-.628c.154-.6,1.17-5.786,1.17-5.786l.041-.2A.817.817,0,0,0,1406.7,312.565Zm-1.868,5.928-8.979,1.105-1.016-5.383H1405.7Z" transform="translate(-1384.287 -289.311)" fill="#fff" fill-rule="evenodd"/>
    <g id="Group_27" data-name="Group 27" transform="translate(12.3)">
      <path id="Path_11" data-name="Path 11" d="M1438.047,175.18a24.493,24.493,0,0,0-3.817,1.24,5.217,5.217,0,0,0-2.411,5.97c3.941.642,5.849-2.379,6.2-6.252a7.99,7.99,0,0,0,.031-.958Z" transform="translate(-1430.791 -172.9)" fill="#fff" fill-rule="evenodd"/>
      <g id="Group_26" data-name="Group 26">
        <path id="Path_14" data-name="Path 14" d="M1436.641,159.435a.731.731,0,0,0-.975-.529.981.981,0,0,0-.421.558c-.144.42-.934.742-1.108.8a10.086,10.086,0,0,1-1.878.55s-1.016.288-1.683.533a5.815,5.815,0,0,0-3.386,3.4,7.555,7.555,0,0,0-.339,2.488,8.82,8.82,0,0,1,2.6,3.315,6.227,6.227,0,0,0,6.106-3.906S1437.318,162.88,1436.641,159.435Zm-3.048,7.695a5,5,0,0,1-4.874,1.829,4.577,4.577,0,0,1,1.016-5.4,9.022,9.022,0,0,1,3.674-1.455,6.607,6.607,0,0,0,1.96-.737C1435.02,164.968,1434.486,165.925,1433.593,167.13Z" transform="translate(-1426.84 -158.858)" fill="#fff" fill-rule="evenodd"/>
      </g>
    </g>
    <g id="Group_30" data-name="Group 30" transform="translate(14.207 31.962)">
      <g id="Group_28" data-name="Group 28">
        <path id="Path_15" data-name="Path 15" d="M1438.95,387.661a.993.993,0,1,0,0,1.937.995.995,0,1,0,0-1.937Z" transform="translate(-1437.739 -387.661)" fill="#fff"/>
      </g>
      <g id="Group_29" data-name="Group 29" transform="translate(3.879)">
        <path id="Path_16" data-name="Path 16" d="M1461.129,387.661a.993.993,0,1,0,1.211.969A1.116,1.116,0,0,0,1461.129,387.661Z" transform="translate(-1459.908 -387.661)" fill="#fff"/>
      </g>
    </g>
    <g id="Group_31" data-name="Group 31" transform="translate(0.058 6.967)">
      <path id="Path_17" data-name="Path 17" d="M1384.884,219.264a8.069,8.069,0,0,0-5.408-5.3,7.876,7.876,0,0,0-7.43,1.757,7.829,7.829,0,0,0-.359-2.372,10.848,10.848,0,0,0-.718-1.6h0c-.01,0-.01-.005-.01-.008s-.01-.008-.01-.012l-.03-.033s-.01-.005-.01-.009c-.318-.4-.421-.41-.7-.766a.383.383,0,0,1-.041-.028,9.024,9.024,0,0,0-.965-.8,1.292,1.292,0,0,1-.113-.067v.005a9.024,9.024,0,0,0-4.023-1.3l-.062,1.529c.021,0,5.624.257,5.6,5.662a7.979,7.979,0,0,0-7.676-1.959,8.109,8.109,0,0,0-5.408,5.3,14.9,14.9,0,0,0,.554,10.086,29.035,29.035,0,0,0,4.187,7.678c1.776,2.217,3.253,3.008,4.71,2.768,1.231-.2,3.192-1.617,4.341-1.647.974,0,3.283,1.373,3.971,1.567,1.57.448,2.678-.216,3.828-1.441a28.821,28.821,0,0,0,5.223-8.925A14.834,14.834,0,0,0,1384.884,219.264Zm-14.777,16.952-.052.016a1.575,1.575,0,0,0-.472.262,13.846,13.846,0,0,1-3.068,1.856c-.626.238-1.806-.606-3.181-2.324a27.558,27.558,0,0,1-3.951-7.258,13.337,13.337,0,0,1-.533-8.961,6.63,6.63,0,0,1,4.443-4.363c4.372-1.251,7.2,2.438,7.358,2.652a.675.675,0,0,0,1.109.012c.01-.012,2.873-3.952,7.368-2.665a6.651,6.651,0,0,1,4.443,4.363,13.339,13.339,0,0,1-.533,8.961,26.094,26.094,0,0,1-4.9,8.39c-.955.971-1.283,1.337-2.114,1.251a17.268,17.268,0,0,1-3.971-2.086,1.744,1.744,0,0,0-.852-.137" transform="translate(-1356.883 -208.731)" fill="#fff"/>
    </g>
    <g id="Group_32" data-name="Group 32" transform="translate(0 6.967)">
      <path id="Path_18" data-name="Path 18" d="M1384.55,219.264a8.034,8.034,0,0,0-5.4-5.3,7.888,7.888,0,0,0-7.44,1.757,8.14,8.14,0,0,0-.359-2.372,9.049,9.049,0,0,0-.718-1.6h-.01v-.02a.128.128,0,0,1-.041-.033v-.009c-.318-.4-.431-.41-.708-.766,0,0-.02-.014-.041-.028a7.263,7.263,0,0,0-.965-.8.887.887,0,0,0-.113-.067v.005a9.07,9.07,0,0,0-4.013-1.3l-.072,1.529c.021,0,5.624.257,5.6,5.662a7.968,7.968,0,0,0-7.666-1.959,8.07,8.07,0,0,0-5.408,5.3,14.838,14.838,0,0,0,.544,10.086,28.748,28.748,0,0,0,4.187,7.678c1.775,2.217,3.264,3.008,4.721,2.768,1.221-.2,2.832-1.547,3.982-1.577.975,0,3.633,1.3,4.31,1.5,1.581.448,2.689-.216,3.838-1.441a28.847,28.847,0,0,0,5.234-8.925A14.831,14.831,0,0,0,1384.55,219.264Zm-13.884,16.7a2.179,2.179,0,0,0-1.416.531,14.71,14.71,0,0,1-3.068,1.856c-.626.238-1.806-.606-3.181-2.324a27.265,27.265,0,0,1-3.951-7.258,13.272,13.272,0,0,1-.524-8.961,6.611,6.611,0,0,1,4.443-4.363c4.372-1.251,7.184,2.438,7.348,2.652a.674.674,0,0,0,1.108.012c.01-.012,2.873-3.952,7.368-2.665a6.63,6.63,0,0,1,4.444,4.363,13.274,13.274,0,0,1-.533,8.961,25.9,25.9,0,0,1-4.885,8.39c-.965.971-1.283,1.337-2.114,1.251a21.594,21.594,0,0,1-3.982-2.086,1.777,1.777,0,0,0-1.047-.356" transform="translate(-1356.551 -208.731)" fill="#fff"/>
    </g>
  </g>
</svg>
