<svg xmlns="http://www.w3.org/2000/svg" width="97.538" height="66.533" viewBox="0 0 97.538 66.533">
  <g id="Group_31287" data-name="Group 31287" transform="translate(-268 -181.4)">
    <g id="Group_37" data-name="Group 37" transform="translate(268 181.4)">
      <g id="Group_36" data-name="Group 36" transform="translate(0 0)">
        <g id="Group_36-2" data-name="Group 36" transform="translate(0 0)">
          <path id="Path_8" data-name="Path 8" d="M1220.033,465.309c-.345,0-.722.006-1.118.025s-.729.041-.942.066l-.345.019c-.044-.035-.063-.132-.063-.286,0-.2.019-.3.063-.3a3.012,3.012,0,0,0,.666-.11c.3-.078.465-.166.509-.276a6.5,6.5,0,0,0,.119-1.6v-6.679a5.756,5.756,0,0,0-.119-1.451c-.032-.129-.208-.229-.49-.314a2.625,2.625,0,0,0-.7-.129c-.05,0-.075-.085-.075-.261a.447.447,0,0,1,.075-.314c.766.047,1.539.066,2.324.066.553.013,1.488-.006,2.795-.05s2.286-.072,2.914-.072c.05.352.138.845.283,1.473s.214.973.226,1.036a.545.545,0,0,1-.37.091c-.132,0-.214-.044-.245-.129a2.222,2.222,0,0,0-2.261-1.573h-.923c-.867,0-1.313.078-1.344.232a9.1,9.1,0,0,0-.082,1.432v2.776c0,.066.251.1.773.1h.973a4.7,4.7,0,0,0,1.212-.085c.144-.06.232-.267.308-.619.031-.182.069-.327.1-.443.012-.085.113-.126.289-.126a.475.475,0,0,1,.333.088v3.341c-.05.047-.151.066-.333.066-.157,0-.245-.041-.289-.138a6.069,6.069,0,0,0-.214-.706,1.091,1.091,0,0,0-.132-.248c-.012-.013-.063-.047-.144-.1a4.646,4.646,0,0,0-1.62-.148c-.841,0-1.256.05-1.256.148v2.776a4.227,4.227,0,0,0,.195,1.46c.038.119.251.232.628.336a3.365,3.365,0,0,0,.76.157c.057,0,.088.1.088.3a.465.465,0,0,1-.05.286c-1.419-.075-2.242-.11-2.512-.11Zm11.65-10.72a3.026,3.026,0,0,0-1.024.119c-.132.06-.214.675-.226,1.84v2.035a.5.5,0,0,0,.308.509,2.345,2.345,0,0,0,.835.122h.458a1.513,1.513,0,0,0,1.174-.612,2.48,2.48,0,0,0,.521-1.611c0-1.6-.691-2.4-2.047-2.4Zm.283-.882a5.617,5.617,0,0,1,.961.091,5.448,5.448,0,0,1,1.042.33,4.419,4.419,0,0,1,.967.562,2.668,2.668,0,0,1,.684.889,2.806,2.806,0,0,1,.264,1.237,2.982,2.982,0,0,1-.622,1.806,3.5,3.5,0,0,1-1.5,1.2c-.088.035-.119.094-.069.176a19.746,19.746,0,0,0,1.978,3,8.2,8.2,0,0,0,1.325,1.3,2.286,2.286,0,0,0,1.319.534.512.512,0,0,1,.082.286.662.662,0,0,1-.082.317,3.442,3.442,0,0,1-.54.035,5.687,5.687,0,0,1-1.633-.21,3.778,3.778,0,0,1-1.275-.625,8.149,8.149,0,0,1-.892-.8,8.5,8.5,0,0,1-.741-.989c-.163-.236-.358-.518-.565-.829-.214-.327-.377-.568-.49-.735s-.232-.355-.377-.537a2.49,2.49,0,0,0-.364-.424.8.8,0,0,0-.289-.195,1.05,1.05,0,0,0-.427-.056.265.265,0,0,0-.289.3v2.49a4.916,4.916,0,0,0,.157,1.5c.031.141.22.254.59.349a4.08,4.08,0,0,0,.785.126c.044,0,.069.1.069.3a.773.773,0,0,1-.038.3c-1.294-.069-2.136-.1-2.513-.1-.314,0-.672.006-1.068.025s-.71.035-.942.047l-.345.031a.506.506,0,0,1-.063-.317c0-.188.019-.286.063-.286a3.11,3.11,0,0,0,.672-.11c.3-.078.477-.166.521-.276a7.17,7.17,0,0,0,.1-1.6v-6.679a7.2,7.2,0,0,0-.1-1.451c-.031-.091-.214-.185-.521-.292a2.743,2.743,0,0,0-.672-.151c-.05,0-.082-.085-.082-.261s.031-.279.082-.314c1.231.034,2.022.053,2.336.053.339,0,.748-.006,1.238-.019s.9-.019,1.262-.019Zm12.554.741a2.536,2.536,0,0,0-2.318,1.385,6.512,6.512,0,0,0-.8,3.344,8.819,8.819,0,0,0,.358,2.528,4.988,4.988,0,0,0,1.231,2.082,2.831,2.831,0,0,0,2.085.873,2.58,2.58,0,0,0,2.324-1.41,6.574,6.574,0,0,0,.816-3.344,9.288,9.288,0,0,0-.345-2.553,4.718,4.718,0,0,0-1.225-2.047,2.9,2.9,0,0,0-2.123-.857Zm-3.724,9.345a6.2,6.2,0,0,1,0-8.453,5.416,5.416,0,0,1,7.989,0,6.165,6.165,0,0,1,0,8.453,5.442,5.442,0,0,1-7.989,0Zm15.971-9.345a2.545,2.545,0,0,0-2.324,1.385,6.577,6.577,0,0,0-.81,3.344,8.608,8.608,0,0,0,.37,2.528,5.044,5.044,0,0,0,1.225,2.082,2.848,2.848,0,0,0,2.079.873,2.575,2.575,0,0,0,2.33-1.41,6.509,6.509,0,0,0,.817-3.344,8.836,8.836,0,0,0-.352-2.553,4.6,4.6,0,0,0-1.225-2.047,2.867,2.867,0,0,0-2.11-.857Zm-3.737,9.345a6.234,6.234,0,0,1,0-8.453,5.43,5.43,0,0,1,8,0,6.2,6.2,0,0,1,0,8.453,5.456,5.456,0,0,1-8,0Zm14.042-10.061c.8.028,1.438.044,1.953.044s1.162-.016,1.966-.044c.785-.031,1.432-.05,1.922-.06a5.822,5.822,0,0,0,1.225-.182l.326,2.707a.705.705,0,0,1-.483.122c-.088,0-.151-.031-.17-.085a2.471,2.471,0,0,0-.653-1.319,1.932,1.932,0,0,0-1.269-.345c-1.1,0-1.671.1-1.715.3a5.812,5.812,0,0,0-.163,1.655v6.378a5.706,5.706,0,0,0,.163,1.535c.013.085.164.166.471.261a3.132,3.132,0,0,0,.622.126c.05,0,.076.11.076.323a.707.707,0,0,1-.044.279c-.144-.013-.377-.025-.672-.047s-.584-.044-.835-.057-.49-.019-.735-.019c-.32,0-.747.019-1.306.053s-.911.056-1.043.069a.424.424,0,0,1-.063-.279c0-.214.019-.323.063-.323a2.627,2.627,0,0,0,.672-.122c.3-.075.458-.166.5-.264a5.863,5.863,0,0,0,.138-1.466v-6.39a4.755,4.755,0,0,0-.163-1.711c-.088-.2-.653-.3-1.683-.3a1.912,1.912,0,0,0-1.262.345,2.493,2.493,0,0,0-.672,1.3c-.012.066-.075.1-.176.1a.6.6,0,0,1-.458-.141l.333-2.688a5.612,5.612,0,0,0,1.218.182c.477.009,1.124.028,1.915.06Zm18.659,8.412a9.449,9.449,0,0,1-.258,1.375,3.175,3.175,0,0,1-.408,1.209,9.6,9.6,0,0,1-4.1.738,5.3,5.3,0,0,1-3.969-1.711,5.7,5.7,0,0,1-1.645-4.079,6.122,6.122,0,0,1,1.677-4.305,5.474,5.474,0,0,1,4.145-1.79,19.12,19.12,0,0,1,4.164.48,5.878,5.878,0,0,1,.1,1.152c.038.766.063,1.231.063,1.419s-.157.267-.433.267a.6.6,0,0,1-.245-.066,2.693,2.693,0,0,0-.251-.656,4.909,4.909,0,0,0-.565-.757,2.623,2.623,0,0,0-1.093-.7,4.753,4.753,0,0,0-1.683-.273,3.033,3.033,0,0,0-2.682,1.435,5.9,5.9,0,0,0-.967,3.423,6.449,6.449,0,0,0,1.08,3.768,3.526,3.526,0,0,0,3.071,1.548,3.218,3.218,0,0,0,2.487-.989,2.594,2.594,0,0,0,.421-.659c.126-.283.214-.512.276-.7s.113-.286.132-.286c.421,0,.641.057.685.157Zm2.3-6a5.359,5.359,0,0,0-.138-1.485c-.05-.094-.214-.185-.5-.276a2.533,2.533,0,0,0-.634-.132c-.05,0-.069-.088-.069-.264s.006-.292.031-.314c.057,0,.383.019.986.053.584.031,1.055.05,1.369.05.094,0,.848-.031,2.255-.1a.98.98,0,0,1,.05.279c0,.2-.019.3-.069.3a2.77,2.77,0,0,0-.634.144c-.314.1-.49.182-.509.264a6.558,6.558,0,0,0-.145,1.558v6.641a6.861,6.861,0,0,0,.151,1.586c.031.085.194.166.49.261a3.016,3.016,0,0,0,.615.126c.038,0,.069.116.069.339a.639.639,0,0,1-.038.251c-1.407-.075-2.167-.11-2.236-.11-.245,0-.477.006-.747.019l-.854.041c-.32.019-.565.038-.754.05a.373.373,0,0,1-.075-.251c0-.223.031-.339.075-.339a2.515,2.515,0,0,0,.66-.122c.308-.075.471-.166.508-.264a6.181,6.181,0,0,0,.138-1.482Zm7.762-2.412q1.2.042,1.959.044t1.959-.044c.8-.031,1.438-.05,1.922-.06a5.711,5.711,0,0,0,1.225-.182l.333,2.707a.721.721,0,0,1-.477.122.191.191,0,0,1-.182-.085,2.518,2.518,0,0,0-.647-1.319,1.963,1.963,0,0,0-1.275-.345c-1.093,0-1.664.1-1.715.3a5.921,5.921,0,0,0-.151,1.655v6.378a5.775,5.775,0,0,0,.151,1.535c.013.085.176.166.484.261a2.97,2.97,0,0,0,.622.126c.038,0,.063.11.063.323a1.1,1.1,0,0,1-.031.279c-.157-.013-.389-.025-.684-.047s-.572-.044-.829-.057-.5-.019-.735-.019c-.314,0-.754.019-1.312.053s-.9.056-1.036.069a.384.384,0,0,1-.069-.279c0-.214.019-.323.069-.323a2.592,2.592,0,0,0,.666-.122c.3-.075.471-.166.5-.264a5.869,5.869,0,0,0,.138-1.466v-6.39a5.077,5.077,0,0,0-.151-1.711c-.094-.2-.666-.3-1.683-.3a1.951,1.951,0,0,0-1.275.345,2.587,2.587,0,0,0-.666,1.3c-.013.066-.069.1-.182.1a.62.62,0,0,1-.459-.141l.333-2.688a5.716,5.716,0,0,0,1.218.182c.49.009,1.118.028,1.915.06Zm10.595.044c.207,0,1.03-.031,2.437-.1a.764.764,0,0,1,.025.314c0,.166-.025.251-.063.251a1.9,1.9,0,0,0-.634.119c-.233.085-.346.207-.346.371a1.144,1.144,0,0,0,.151.462l1.878,3.432c.05.053.113.041.176-.038.509-.76.992-1.539,1.469-2.333a4.66,4.66,0,0,0,.7-1.523c0-.126-.113-.245-.327-.345a2.143,2.143,0,0,0-.854-.144c-.044,0-.075-.085-.075-.251a.648.648,0,0,1,.05-.314c1.193.072,1.9.1,2.123.1q.405,0,.735-.019c.213-.013.44-.025.666-.044s.408-.031.54-.041a1.372,1.372,0,0,1,.031.279c0,.188-.019.286-.069.286a2.352,2.352,0,0,0-.729.157,1.456,1.456,0,0,0-.685.424c-.345.506-.948,1.473-1.834,2.908a13.568,13.568,0,0,0-1.325,2.374v2.757a7.148,7.148,0,0,0,.138,1.586c.025.085.195.176.49.276a2.407,2.407,0,0,0,.6.148c.05,0,.069.094.069.286a1.109,1.109,0,0,1-.031.279c-.163-.013-.377-.025-.672-.047s-.571-.044-.816-.057-.49-.019-.729-.019c-.314,0-.754.019-1.294.053s-.885.056-1.017.069a.413.413,0,0,1-.075-.279c0-.192.019-.286.063-.286a2.742,2.742,0,0,0,.653-.138c.283-.094.446-.188.49-.286a6.23,6.23,0,0,0,.144-1.548v-2.619a1.312,1.312,0,0,0-.113-.345c-.081-.17-.213-.43-.4-.779s-.352-.641-.49-.9-.377-.659-.691-1.231-.553-.983-.7-1.25a3.4,3.4,0,0,0-.929-1.222,1.734,1.734,0,0,0-.521-.22,1.971,1.971,0,0,0-.5-.094c-.025,0-.057-.063-.057-.176a.4.4,0,0,1,.031-.251c.27-.022,1.049-.035,2.324-.035Z" transform="translate(-1217.533 -399.004)" fill="#1a1818"/>
          <g id="Group_33" data-name="Group 33" transform="translate(29.774)">
            <path id="Path_9" data-name="Path 9" d="M1388.342,305.985c1.834-1.368,4.208-4.876,6.042-10.027,2.6-7.245.54-13.666-4.333-15.163s-8.013,3.09-8.013,3.09-3.115-4.592-8-3.09-6.934,7.918-4.333,15.163c2.575,7.247,6.255,11.259,7.926,10.58a14.59,14.59,0,0,0,3.492-2.289l-2.085-1.4a1.945,1.945,0,0,1-1.105-1.688l-2.1-11.762h-1.269c-2.487,0-1.959-3.377-.088-3.433l3.14,1.423,2.362,13.285,7.725,5.165Z" transform="translate(-1365.996 -258.285)" fill="#e71933" fill-rule="evenodd"/>
            <path id="Path_10" data-name="Path 10" d="M1410.405,313.2c-.892-.112-14.909,0-14.909,0l-.314-1.818a1.012,1.012,0,0,0-.9-.858c-.8-.076-3.266.009-3.266.009s-.628-.013-.842.889a1.121,1.121,0,0,0,.791,1.234c1.218.011,2.562.015,2.562.015l2.386,13.585a1.257,1.257,0,0,0,.678,1.049c.766.476,3.316,2.068,3.316,2.068l1.671-1.381-3.894-2.443-.176-1.051,11.468-1.508a.924.924,0,0,0,.791-.82c.188-.787,1.432-7.562,1.432-7.562l.05-.268S1411.3,313.315,1410.405,313.2Zm-2.286,7.748-10.99,1.444-1.243-7.036h13.289Z" transform="translate(-1382.97 -282.808)" fill="#7cb734" fill-rule="evenodd"/>
            <g id="Group_27" data-name="Group 27" transform="translate(15.055)">
              <path id="Path_11" data-name="Path 11" d="M1439.486,175.18a28.634,28.634,0,0,0-4.672,1.621,7.021,7.021,0,0,0-2.952,7.8c4.823.839,7.159-3.109,7.587-8.171a11.158,11.158,0,0,0,.038-1.253Z" transform="translate(-1430.604 -172.2)" fill="#7cb734" fill-rule="evenodd"/>
              <g id="Group_26" data-name="Group 26">
                <path id="Path_14" data-name="Path 14" d="M1438.836,159.613a.9.9,0,0,0-1.193-.692,1.266,1.266,0,0,0-.515.729c-.176.549-1.143.97-1.357,1.051a11.773,11.773,0,0,1-2.3.719s-1.244.376-2.06.7a7.33,7.33,0,0,0-4.145,4.45,10.493,10.493,0,0,0-.414,3.252,11.371,11.371,0,0,1,3.178,4.332s5,.616,7.474-5.1C1437.5,169.046,1439.665,164.115,1438.836,159.613Zm-3.73,10.057a5.891,5.891,0,0,1-5.966,2.39,6.269,6.269,0,0,1,1.244-7.061,10.649,10.649,0,0,1,4.5-1.9,7.81,7.81,0,0,0,2.4-.964C1436.851,166.844,1436.2,168.094,1435.105,169.669Z" transform="translate(-1426.84 -158.858)" fill="#7cb734" fill-rule="evenodd"/>
              </g>
            </g>
            <g id="Group_30" data-name="Group 30" transform="translate(17.39 41.774)">
              <g id="Group_28" data-name="Group 28">
                <path id="Path_15" data-name="Path 15" d="M1439.221,387.661a1.282,1.282,0,1,0,0,2.532,1.284,1.284,0,1,0,0-2.532Z" transform="translate(-1437.739 -387.661)" fill="#7cb734"/>
              </g>
              <g id="Group_29" data-name="Group 29" transform="translate(4.748)">
                <path id="Path_16" data-name="Path 16" d="M1461.4,387.661a1.282,1.282,0,1,0,1.482,1.266A1.393,1.393,0,0,0,1461.4,387.661Z" transform="translate(-1459.907 -387.661)" fill="#7cb734"/>
              </g>
            </g>
            <g id="Group_31" data-name="Group 31" transform="translate(0.071 9.106)">
              <path id="Path_17" data-name="Path 17" d="M1391.156,222.5a10.209,10.209,0,0,0-6.619-6.929,9.214,9.214,0,0,0-9.094,2.3,10.869,10.869,0,0,0-.44-3.1,14.725,14.725,0,0,0-.879-2.091h0c-.012,0-.012-.007-.012-.011s-.013-.011-.013-.016l-.038-.043s-.013-.007-.013-.012c-.389-.527-.515-.535-.854-1a.52.52,0,0,1-.05-.036,11.247,11.247,0,0,0-1.181-1.04,1.61,1.61,0,0,1-.138-.087v.007a10.531,10.531,0,0,0-4.924-1.7l-.075,2c.025,0,6.883.336,6.858,7.4a9.356,9.356,0,0,0-9.4-2.56,10.26,10.26,0,0,0-6.62,6.929c-1.319,4-.9,8.763.678,13.182a38.764,38.764,0,0,0,5.125,10.035c2.173,2.9,3.982,3.931,5.765,3.618,1.507-.265,3.906-2.113,5.313-2.152,1.193,0,4.02,1.795,4.861,2.048,1.922.585,3.278-.282,4.685-1.883a38.312,38.312,0,0,0,6.393-11.665C1392.073,231.26,1392.487,226.5,1391.156,222.5Zm-18.087,22.156-.063.021a1.9,1.9,0,0,0-.578.343,16.779,16.779,0,0,1-3.755,2.425c-.766.31-2.211-.792-3.894-3.037a36.8,36.8,0,0,1-4.836-9.486c-1.407-3.924-1.809-8.178-.653-11.712a8.39,8.39,0,0,1,5.439-5.7c5.351-1.636,8.817,3.187,9.006,3.466a.8.8,0,0,0,1.357.016c.012-.016,3.517-5.165,9.018-3.482a8.415,8.415,0,0,1,5.439,5.7c1.156,3.535.754,7.788-.653,11.712-1.47,4.1-3.642,8.4-5.991,10.965-1.168,1.269-1.57,1.748-2.588,1.635-.728-.08-2.8-1.356-4.861-2.726a2.015,2.015,0,0,0-1.043-.179" transform="translate(-1356.883 -208.731)" fill="#1a1818"/>
            </g>
            <g id="Group_32" data-name="Group 32" transform="translate(0 9.106)">
              <path id="Path_18" data-name="Path 18" d="M1390.821,222.5a10.167,10.167,0,0,0-6.607-6.929,9.229,9.229,0,0,0-9.106,2.3,11.347,11.347,0,0,0-.439-3.1,12.294,12.294,0,0,0-.879-2.091h-.012v-.027a.159.159,0,0,1-.051-.043v-.012c-.389-.527-.527-.535-.866-1,0-.005-.025-.019-.05-.036a9.074,9.074,0,0,0-1.181-1.04,1.12,1.12,0,0,0-.138-.087v.007a10.587,10.587,0,0,0-4.911-1.7l-.088,2c.025,0,6.883.336,6.858,7.4a9.343,9.343,0,0,0-9.383-2.56,10.209,10.209,0,0,0-6.619,6.929c-1.331,4-.917,8.763.666,13.182a38.379,38.379,0,0,0,5.125,10.035c2.173,2.9,3.994,3.931,5.778,3.618,1.494-.265,3.466-2.022,4.873-2.061,1.193,0,4.446,1.7,5.275,1.957,1.934.585,3.291-.282,4.7-1.883a38.335,38.335,0,0,0,6.406-11.665C1391.751,231.26,1392.153,226.5,1390.821,222.5Zm-16.994,21.825a2.576,2.576,0,0,0-1.733.695,17.82,17.82,0,0,1-3.755,2.425c-.766.31-2.211-.792-3.894-3.037a36.406,36.406,0,0,1-4.836-9.486c-1.394-3.924-1.821-8.178-.641-11.712a8.364,8.364,0,0,1,5.439-5.7c5.351-1.636,8.792,3.187,8.993,3.466a.8.8,0,0,0,1.356.016c.013-.016,3.517-5.165,9.019-3.482a8.39,8.39,0,0,1,5.438,5.7c1.168,3.535.754,7.788-.653,11.712-1.457,4.1-3.63,8.4-5.979,10.965-1.181,1.269-1.57,1.748-2.587,1.635-.729-.08-2.839-1.478-4.873-2.726a2.088,2.088,0,0,0-1.281-.466" transform="translate(-1356.551 -208.731)" fill="#1a1818"/>
            </g>
          </g>
        </g>
      </g>
    </g>
  </g>
</svg>
